<svg width="20.469999" height="19.347656" viewBox="0 0 20.47 19.3477" fill="none" xmlns="http://www.w3.org/2000/svg" xmlns:xlink="http://www.w3.org/1999/xlink">
	<desc>
			Created with Pixso.
	</desc>
	<defs/>
	<path id="path" d="M0 9.02C0 10.26 0.3 11.47 0.9 12.64C1.5 13.81 2.32 14.83 3.38 15.68C3.57 15.83 3.62 16.09 3.52 16.47C3.42 16.85 3.26 17.35 3.02 17.97L2.88 18.31C2.82 18.43 2.8 18.57 2.82 18.72C2.82 18.85 2.87 18.98 2.97 19.08C3.08 19.22 3.18 19.3 3.28 19.33C3.38 19.35 3.51 19.35 3.69 19.31C4.36 19.17 4.92 19.01 5.38 18.83C5.84 18.66 6.31 18.44 6.81 18.18C6.95 18.1 7.18 17.98 7.34 17.91C7.5 17.84 7.63 17.79 7.75 17.77C8.53 17.93 9.35 18.02 10.22 18.02C12.06 18.02 13.76 17.61 15.33 16.81C16.89 16 18.14 14.91 19.08 13.52C20 12.15 20.46 10.65 20.46 9.02C20.46 7.38 20 5.87 19.08 4.5C18.14 3.11 16.89 2.01 15.33 1.2C13.76 0.4 12.06 0 10.22 0C8.38 0 6.67 0.4 5.11 1.2C3.54 2.01 2.3 3.11 1.38 4.5C0.46 5.87 0 7.38 0 9.02ZM1.56 9.02C1.56 7.66 1.94 6.4 2.72 5.25C3.49 4.1 4.54 3.18 5.88 2.5C7.2 1.83 8.65 1.49 10.22 1.49C11.78 1.49 13.23 1.83 14.55 2.5C15.87 3.18 16.92 4.1 17.7 5.25C18.47 6.4 18.86 7.66 18.86 9.02C18.86 10.37 18.47 11.63 17.7 12.79C16.92 13.94 15.87 14.85 14.55 15.52C13.23 16.19 11.78 16.52 10.22 16.52C9.5 16.52 8.78 16.45 8.08 16.31C7.81 16.25 7.55 16.26 7.29 16.35C7.03 16.44 6.71 16.59 6.31 16.79L5.71 17.08C5.42 17.21 5.12 17.34 4.82 17.47C5 16.86 5.08 16.25 5.04 15.75C4.98 15.25 4.74 14.83 4.32 14.52C3.44 13.81 2.76 12.98 2.28 12.02C1.8 11.06 1.56 10.06 1.56 9.02Z" fill="#000000" fill-opacity="0.901961" fill-rule="nonzero"/>
	<path id="path" d="M5.12 7.96C4.77 7.96 4.47 8.09 4.21 8.33C3.96 8.58 3.83 8.89 3.83 9.25C3.83 9.61 3.96 9.91 4.21 10.16C4.47 10.42 4.77 10.55 5.12 10.55C5.49 10.55 5.8 10.42 6.06 10.16C6.32 9.91 6.44 9.61 6.44 9.25C6.44 8.9 6.32 8.6 6.06 8.34C5.8 8.09 5.49 7.96 5.12 7.96ZM8.91 9.25C8.91 9.61 9.04 9.91 9.3 10.16C9.56 10.42 9.86 10.55 10.22 10.55C10.58 10.55 10.89 10.42 11.14 10.16C11.39 9.91 11.52 9.61 11.52 9.25C11.52 8.89 11.39 8.58 11.14 8.33C10.89 8.09 10.58 7.96 10.22 7.96C9.86 7.96 9.56 8.09 9.3 8.33C9.04 8.58 8.91 8.89 8.91 9.25ZM14.01 9.25C14.01 9.61 14.14 9.91 14.4 10.16C14.65 10.42 14.95 10.55 15.31 10.55C15.67 10.55 15.98 10.42 16.23 10.16C16.47 9.91 16.6 9.61 16.6 9.25C16.6 8.89 16.47 8.58 16.23 8.33C15.98 8.09 15.67 7.96 15.31 7.96C14.95 7.96 14.65 8.09 14.4 8.33C14.14 8.58 14.01 8.89 14.01 9.25Z" fill="#000000" fill-opacity="0.901961" fill-rule="nonzero"/>
</svg>
